<svg width="687" height="131" viewBox="0 0 687 131" fill="none" xmlns="http://www.w3.org/2000/svg">
<g clip-path="url(#clip0_47_10)">
<path d="M4.66 130.43C3.04 130.43 1.87 130.06 1.12 129.31C0.37 128.56 0 127.39 0 125.77V4.66C0 2.92 0.37 1.71 1.12 1.02C1.86 0.34 3.04 0 4.66 0H143.47C145.21 0 146.42 0.34 147.1 1.02C147.78 1.7 148.12 2.92 148.12 4.65V27.95C148.12 29.57 147.78 30.74 147.1 31.49C146.42 32.24 145.2 32.61 143.47 32.61H40.99V97.82H145.33C147.07 97.82 148.28 98.16 148.96 98.84C149.64 99.52 149.98 100.74 149.98 102.47V125.76C149.98 127.38 149.64 128.55 148.96 129.3C148.28 130.05 147.06 130.42 145.33 130.42H4.66V130.43ZM20.5 80.12V49.38H134.16C135.9 49.38 137.11 49.72 137.79 50.4C138.47 51.08 138.81 52.3 138.81 54.03V75.46C138.81 77.08 138.47 78.25 137.79 79C137.11 79.75 135.89 80.12 134.16 80.12H20.5Z" fill="black"/>
<path d="M194.71 130.43C186.88 130.43 180.42 129.19 175.33 126.7C170.24 124.22 166.45 120.43 163.96 115.33C161.47 110.24 160.23 103.78 160.23 95.95V34.47C160.23 26.64 161.47 20.19 163.96 15.09C166.44 9.99999 170.23 6.20999 175.33 3.71999C180.42 1.23999 186.88 -0.0100098 194.71 -0.0100098H294.39C302.22 -0.0100098 308.67 1.22999 313.77 3.71999C318.86 6.20999 322.65 9.98999 325.14 15.09C327.62 20.18 328.87 26.64 328.87 34.47V48.44C328.87 50.06 328.53 51.23 327.85 51.98C327.17 52.73 325.95 53.1 324.22 53.1H289.75C288.13 53.1 286.96 52.73 286.21 51.98C285.46 51.23 285.09 50.06 285.09 48.44V43.04C285.09 41.05 284.69 39.35 283.88 37.92C283.07 36.49 281.89 35.4 280.34 34.66C278.79 33.91 276.89 33.54 274.66 33.54H212.61C209.88 33.54 207.7 33.94 206.09 34.75C204.47 35.56 203.26 36.77 202.46 38.38C201.65 40 201.25 42.17 201.25 44.9V85.52C201.25 88.25 201.65 90.43 202.46 92.04C203.27 93.66 204.48 94.87 206.09 95.67C207.7 96.48 209.88 96.88 212.61 96.88H274.66C276.9 96.88 278.79 96.51 280.34 95.76C281.89 95.01 283.07 93.93 283.88 92.5C284.69 91.07 285.09 89.36 285.09 87.38V81.98C285.09 80.37 285.46 79.19 286.21 78.44C286.96 77.69 288.13 77.32 289.75 77.32H324.22C325.96 77.32 327.17 77.66 327.85 78.34C328.53 79.02 328.87 80.24 328.87 81.97V95.94C328.87 103.77 327.63 110.23 325.14 115.32C322.65 120.41 318.87 124.2 313.77 126.69C308.68 129.18 302.22 130.42 294.39 130.42H194.71V130.43Z" fill="black"/>
<path d="M345.22 130.43C343.6 130.43 342.43 130.06 341.68 129.31C340.93 128.56 340.56 127.39 340.56 125.77V4.66001C340.56 2.92001 340.93 1.71001 341.68 1.03001C342.43 0.35001 343.6 0.0100098 345.22 0.0100098H376.89C378.63 0.0100098 379.84 0.35001 380.52 1.03001C381.2 1.71001 381.54 2.93001 381.54 4.66001V125.77C381.54 127.39 381.2 128.56 380.52 129.31C379.84 130.06 378.62 130.43 376.89 130.43H345.22ZM353.6 82.92V46.58H498V82.91H353.6V82.92ZM475.64 130.43C474.02 130.43 472.85 130.06 472.1 129.31C471.35 128.56 470.98 127.39 470.98 125.77V4.66001C470.98 2.92001 471.35 1.71001 472.1 1.03001C472.85 0.35001 474.02 0.0100098 475.64 0.0100098H507.31C509.05 0.0100098 510.26 0.35001 510.94 1.03001C511.62 1.71001 511.96 2.93001 511.96 4.66001V125.77C511.96 127.39 511.62 128.56 510.94 129.31C510.26 130.06 509.04 130.43 507.31 130.43H475.64Z" fill="black"/>
<path d="M649.23 115.33C654.2 115.33 658.17 114.62 661.15 113.19C664.13 111.76 666.33 109.56 667.76 106.58C669.19 103.6 669.9 99.62 669.9 94.66V35.77C669.9 30.8 669.18 26.83 667.76 23.85C666.33 20.87 664.13 18.67 661.15 17.24C658.17 15.81 654.19 15.1 649.23 15.1H560.91C556.07 15.1 552.12 15.82 549.08 17.24C546.03 18.67 543.8 20.87 542.37 23.85C540.94 26.83 540.23 30.81 540.23 35.77V94.65C540.23 99.62 540.94 103.59 542.37 106.57C543.8 109.55 546.03 111.76 549.08 113.18C552.12 114.61 556.07 115.32 560.91 115.32H649.23V115.33ZM558.3 130.42C550.6 130.42 544.2 129.15 539.11 126.6C534.02 124.06 530.2 120.24 527.65 115.14C525.1 110.05 523.83 103.65 523.83 95.95V34.47C523.83 26.77 525.1 20.37 527.65 15.28C530.19 10.19 534.01 6.37 539.11 3.82C544.2 1.28 550.6 0 558.3 0H651.83C659.53 0 665.93 1.28 671.02 3.82C676.11 6.37 679.93 10.19 682.48 15.28C685.02 20.37 686.3 26.77 686.3 34.47V95.96C686.3 103.66 685.02 110.06 682.48 115.15C679.93 120.24 676.11 124.06 671.02 126.61C665.93 129.16 659.53 130.43 651.83 130.43H558.3V130.42Z" fill="black"/>
<path d="M633.04 98.8201C636.64 98.8201 639.52 98.3201 641.66 97.3101C643.81 96.3001 645.38 94.7301 646.39 92.5801C647.4 90.4301 647.9 87.5601 647.9 83.9601V46.2601C647.9 42.6601 647.4 39.7801 646.39 37.6401C645.38 35.4901 643.81 33.9201 641.66 32.9101C639.51 31.9001 636.64 31.4001 633.04 31.4001H577.04C573.5 31.4001 570.64 31.9001 568.46 32.9101C566.28 33.9201 564.69 35.4901 563.68 37.6401C562.67 39.7901 562.17 42.6601 562.17 46.2601V83.9501C562.17 87.5501 562.67 90.4301 563.68 92.5701C564.69 94.7201 566.28 96.3001 568.46 97.3001C570.64 98.3101 573.5 98.8101 577.04 98.8101H633.04V98.8201ZM575.87 107.03C570.67 107.03 566.42 106.23 563.11 104.61C559.8 103 557.34 100.54 555.73 97.2301C554.12 93.9201 553.31 89.6701 553.31 84.4701V45.7401C553.31 40.5401 554.11 36.2901 555.73 32.9801C557.34 29.6701 559.8 27.2101 563.11 25.6001C566.42 23.9901 570.67 23.1801 575.87 23.1801H634.22C639.42 23.1801 643.67 23.9901 646.98 25.6001C650.29 27.2101 652.75 29.6701 654.36 32.9801C655.97 36.2901 656.78 40.5401 656.78 45.7401V84.4701C656.78 89.6701 655.97 93.9201 654.36 97.2301C652.75 100.54 650.29 103 646.98 104.61C643.67 106.22 639.42 107.03 634.22 107.03H575.87Z" fill="black" fill-opacity="0.75"/>
<path d="M616.84 82.3C619.08 82.3 620.85 82.01 622.16 81.42C623.47 80.83 624.42 79.89 625.01 78.57C625.6 77.26 625.89 75.48 625.89 73.25V56.75C625.89 54.51 625.6 52.74 625.01 51.43C624.42 50.12 623.47 49.17 622.16 48.58C620.85 47.99 619.07 47.7 616.84 47.7H593.15C590.91 47.7 589.14 47.99 587.83 48.58C586.52 49.17 585.57 50.12 584.98 51.43C584.39 52.74 584.1 54.52 584.1 56.75V73.25C584.1 75.49 584.39 77.26 584.98 78.57C585.57 79.88 586.51 80.83 587.83 81.42C589.14 82.01 590.92 82.3 593.15 82.3H616.84ZM593.42 83.63C590.72 83.63 588.61 83.29 587.09 82.62C585.56 81.95 584.46 80.85 583.79 79.32C583.12 77.79 582.78 75.68 582.78 72.99V57.02C582.78 54.32 583.12 52.21 583.79 50.69C584.46 49.16 585.56 48.06 587.09 47.39C588.62 46.72 590.73 46.38 593.42 46.38H616.58C619.28 46.38 621.39 46.72 622.91 47.39C624.44 48.06 625.54 49.17 626.21 50.69C626.88 52.22 627.22 54.33 627.22 57.02V72.99C627.22 75.69 626.88 77.8 626.21 79.32C625.54 80.85 624.43 81.95 622.91 82.62C621.38 83.29 619.27 83.63 616.58 83.63H593.42Z" fill="black" fill-opacity="0.5"/>
</g>
<defs>
<clipPath id="clip0_47_10">
<rect width="686.31" height="130.43" fill="white"/>
</clipPath>
</defs>
</svg>
