<svg width="164" height="131" viewBox="0 0 164 131" fill="none" xmlns="http://www.w3.org/2000/svg">
<path d="M126.23 115.33C131.2 115.33 135.17 114.62 138.15 113.19C141.13 111.76 143.33 109.56 144.76 106.58C146.19 103.6 146.9 99.62 146.9 94.66V35.77C146.9 30.8 146.18 26.83 144.76 23.85C143.33 20.87 141.13 18.67 138.15 17.24C135.17 15.81 131.19 15.1 126.23 15.1H37.91C33.07 15.1 29.1201 15.82 26.0801 17.24C23.0301 18.67 20.8001 20.87 19.3701 23.85C17.9401 26.83 17.23 30.81 17.23 35.77V94.65C17.23 99.62 17.9401 103.59 19.3701 106.57C20.8001 109.55 23.0301 111.76 26.0801 113.18C29.1201 114.61 33.07 115.32 37.91 115.32H126.23V115.33ZM35.3 130.42C27.6 130.42 21.2 129.15 16.11 126.6C11.02 124.06 7.20009 120.24 4.65009 115.14C2.10009 110.05 0.830078 103.65 0.830078 95.95V34.47C0.830078 26.77 2.10009 20.37 4.65009 15.28C7.19009 10.19 11.01 6.37 16.11 3.82C21.2 1.28 27.6 0 35.3 0H128.83C136.53 0 142.93 1.28 148.02 3.82C153.11 6.37 156.93 10.19 159.48 15.28C162.02 20.37 163.3 26.77 163.3 34.47V95.96C163.3 103.66 162.02 110.06 159.48 115.15C156.93 120.24 153.11 124.06 148.02 126.61C142.93 129.16 136.53 130.43 128.83 130.43H35.3V130.42Z" fill="black"/>
<path d="M110.04 98.8201C113.64 98.8201 116.52 98.3201 118.66 97.3101C120.81 96.3001 122.38 94.7301 123.39 92.5801C124.4 90.4301 124.9 87.5601 124.9 83.9601V46.2601C124.9 42.6601 124.4 39.7801 123.39 37.6401C122.38 35.4901 120.81 33.9201 118.66 32.9101C116.51 31.9001 113.64 31.4001 110.04 31.4001H54.04C50.5 31.4001 47.6401 31.9001 45.4601 32.9101C43.2801 33.9201 41.6901 35.4901 40.6801 37.6401C39.6701 39.7901 39.17 42.6601 39.17 46.2601V83.9501C39.17 87.5501 39.6701 90.4301 40.6801 92.5701C41.6901 94.7201 43.2801 96.3001 45.4601 97.3001C47.6401 98.3101 50.5 98.8101 54.04 98.8101H110.04V98.8201ZM52.8701 107.03C47.6701 107.03 43.42 106.23 40.11 104.61C36.8 103 34.34 100.54 32.73 97.2301C31.12 93.9201 30.3101 89.6701 30.3101 84.4701V45.7401C30.3101 40.5401 31.11 36.2901 32.73 32.9801C34.34 29.6701 36.8 27.2101 40.11 25.6001C43.42 23.9901 47.6701 23.1801 52.8701 23.1801H111.22C116.42 23.1801 120.67 23.9901 123.98 25.6001C127.29 27.2101 129.75 29.6701 131.36 32.9801C132.97 36.2901 133.78 40.5401 133.78 45.7401V84.4701C133.78 89.6701 132.97 93.9201 131.36 97.2301C129.75 100.54 127.29 103 123.98 104.61C120.67 106.22 116.42 107.03 111.22 107.03H52.8701Z" fill="black" fill-opacity="0.75"/>
<path d="M93.84 82.3C96.08 82.3 97.85 82.01 99.16 81.42C100.47 80.83 101.42 79.89 102.01 78.57C102.6 77.26 102.89 75.48 102.89 73.25V56.75C102.89 54.51 102.6 52.74 102.01 51.43C101.42 50.12 100.47 49.17 99.16 48.58C97.85 47.99 96.07 47.7 93.84 47.7H70.15C67.91 47.7 66.14 47.99 64.83 48.58C63.52 49.17 62.57 50.12 61.98 51.43C61.39 52.74 61.1 54.52 61.1 56.75V73.25C61.1 75.49 61.39 77.26 61.98 78.57C62.57 79.88 63.51 80.83 64.83 81.42C66.14 82.01 67.92 82.3 70.15 82.3H93.84ZM70.42 83.63C67.72 83.63 65.61 83.29 64.09 82.62C62.56 81.95 61.46 80.85 60.79 79.32C60.12 77.79 59.78 75.68 59.78 72.99V57.02C59.78 54.32 60.12 52.21 60.79 50.69C61.46 49.16 62.56 48.06 64.09 47.39C65.62 46.72 67.73 46.38 70.42 46.38H93.58C96.28 46.38 98.39 46.72 99.91 47.39C101.44 48.06 102.54 49.17 103.21 50.69C103.88 52.22 104.22 54.33 104.22 57.02V72.99C104.22 75.69 103.88 77.8 103.21 79.32C102.54 80.85 101.43 81.95 99.91 82.62C98.38 83.29 96.27 83.63 93.58 83.63H70.42Z" fill="black" fill-opacity="0.5"/>
</svg>
