<svg width="163" height="131" viewBox="0 0 163 131" fill="none" xmlns="http://www.w3.org/2000/svg">
<path d="M125.4 115.33C130.37 115.33 134.34 114.62 137.32 113.19C140.3 111.76 142.5 109.56 143.93 106.58C145.36 103.6 146.07 99.62 146.07 94.66V35.77C146.07 30.8 145.35 26.83 143.93 23.85C142.5 20.87 140.3 18.67 137.32 17.24C134.34 15.81 130.36 15.1 125.4 15.1H37.08C32.24 15.1 28.29 15.82 25.25 17.24C22.2 18.67 19.97 20.87 18.54 23.85C17.11 26.83 16.4 30.81 16.4 35.77V94.65C16.4 99.62 17.11 103.59 18.54 106.57C19.97 109.55 22.2 111.76 25.25 113.18C28.29 114.61 32.24 115.32 37.08 115.32H125.4V115.33ZM34.47 130.42C26.77 130.42 20.37 129.15 15.28 126.6C10.19 124.06 6.37001 120.24 3.82001 115.14C1.27001 110.05 0 103.65 0 95.95V34.47C0 26.77 1.27001 20.37 3.82001 15.28C6.36001 10.19 10.18 6.37 15.28 3.82C20.37 1.28 26.77 0 34.47 0H128C135.7 0 142.1 1.28 147.19 3.82C152.28 6.37 156.1 10.19 158.65 15.28C161.19 20.37 162.47 26.77 162.47 34.47V95.96C162.47 103.66 161.19 110.06 158.65 115.15C156.1 120.24 152.28 124.06 147.19 126.61C142.1 129.16 135.7 130.43 128 130.43H34.47V130.42Z" fill="#F97316"/>
<path d="M109.21 98.8201C112.81 98.8201 115.69 98.3201 117.83 97.3101C119.98 96.3001 121.55 94.7301 122.56 92.5801C123.57 90.4301 124.07 87.5601 124.07 83.9601V46.2601C124.07 42.6601 123.57 39.7801 122.56 37.6401C121.55 35.4901 119.98 33.9201 117.83 32.9101C115.68 31.9001 112.81 31.4001 109.21 31.4001H53.21C49.67 31.4001 46.81 31.9001 44.63 32.9101C42.45 33.9201 40.86 35.4901 39.85 37.6401C38.84 39.7901 38.34 42.6601 38.34 46.2601V83.9501C38.34 87.5501 38.84 90.4301 39.85 92.5701C40.86 94.7201 42.45 96.3001 44.63 97.3001C46.81 98.3101 49.67 98.8101 53.21 98.8101H109.21V98.8201ZM52.04 107.03C46.84 107.03 42.59 106.23 39.28 104.61C35.97 103 33.51 100.54 31.9 97.2301C30.29 93.9201 29.48 89.6701 29.48 84.4701V45.7401C29.48 40.5401 30.28 36.2901 31.9 32.9801C33.51 29.6701 35.97 27.2101 39.28 25.6001C42.59 23.9901 46.84 23.1801 52.04 23.1801H110.39C115.59 23.1801 119.84 23.9901 123.15 25.6001C126.46 27.2101 128.92 29.6701 130.53 32.9801C132.14 36.2901 132.95 40.5401 132.95 45.7401V84.4701C132.95 89.6701 132.14 93.9201 130.53 97.2301C128.92 100.54 126.46 103 123.15 104.61C119.84 106.22 115.59 107.03 110.39 107.03H52.04Z" fill="#F97316" fill-opacity="0.75"/>
<path d="M93.0099 82.3C95.2499 82.3 97.0199 82.01 98.3299 81.42C99.6399 80.83 100.59 79.89 101.18 78.57C101.77 77.26 102.06 75.48 102.06 73.25V56.75C102.06 54.51 101.77 52.74 101.18 51.43C100.59 50.12 99.6399 49.17 98.3299 48.58C97.0199 47.99 95.2399 47.7 93.0099 47.7H69.3199C67.0799 47.7 65.3099 47.99 63.9999 48.58C62.6899 49.17 61.7399 50.12 61.1499 51.43C60.5599 52.74 60.2699 54.52 60.2699 56.75V73.25C60.2699 75.49 60.5599 77.26 61.1499 78.57C61.7399 79.88 62.6799 80.83 63.9999 81.42C65.3099 82.01 67.0899 82.3 69.3199 82.3H93.0099ZM69.5899 83.63C66.8899 83.63 64.7799 83.29 63.2599 82.62C61.7299 81.95 60.6299 80.85 59.9599 79.32C59.2899 77.79 58.95 75.68 58.95 72.99V57.02C58.95 54.32 59.2899 52.21 59.9599 50.69C60.6299 49.16 61.7299 48.06 63.2599 47.39C64.7899 46.72 66.8999 46.38 69.5899 46.38H92.7499C95.4499 46.38 97.5599 46.72 99.0799 47.39C100.61 48.06 101.71 49.17 102.38 50.69C103.05 52.22 103.39 54.33 103.39 57.02V72.99C103.39 75.69 103.05 77.8 102.38 79.32C101.71 80.85 100.6 81.95 99.0799 82.62C97.5499 83.29 95.4399 83.63 92.7499 83.63H69.5899Z" fill="#F97316" fill-opacity="0.5"/>
</svg>
